<svg data-v-0dd9719b="" version="1.0" xmlns="http://www.w3.org/2000/svg" xmlns:xlink="http://www.w3.org/1999/xlink" width="100%" height="100%" viewBox="0 0 340.000000 250.000000" preserveAspectRatio="xMidYMid meet" color-interpolation-filters="sRGB" style="margin: auto;"> <rect data-v-0dd9719b="" x="0" y="0" width="100%" height="100%" fill="#ffffff" fill-opacity="1" class="background"></rect> <!----> <g data-v-0dd9719b="" class="iconmbgsvg" transform="translate(39.27500915527344,59.43299865722656)"><g fill="#333" hollow-target="textRect"><g transform="translate(71.97499084472656,0)" mask="url(#68ae6ecf-75af-46d0-a118-a0bcc5f5064e)"><g><rect fill="#333" fill-opacity="0" stroke-width="2" x="0" y="0" width="117.5" height="131.13400220974745" class="image-rect"></rect> <svg x="0" y="0" width="117.5" height="131.13400220974745" filtersec="colorsb3256518264" class="image-svg-svg primary" style="overflow: visible;"><svg xmlns="http://www.w3.org/2000/svg" viewBox="0 -0.0002520764828659594 89.60324096679688 100.00025939941406"><path fill="#1e2462" d="M0 5.43h83.85v88.91H0z"></path><path d="M89.59 27.35V2.6A2.61 2.61 0 0 0 87 0H21.71a2.55 2.55 0 0 0-2.39 1.57 2.56 2.56 0 0 0 .49 2.81l1 1L62.59 50 21.05 94.34l-1.21 1.28a2.6 2.6 0 0 0 1.9 4.38H87a2.61 2.61 0 0 0 2.6-2.6V27.75a2.71 2.71 0 0 0-.01-.4z" fill="#0b71dd" opacity=".8"></path></svg></svg> <!----></g></g> <g transform="translate(0,49.257001876831055)"><g data-gra="path-name" fill-rule="" class="tp-name"><g transform="scale(1)"><g><path d="M28.84 4.65L22.26 4.65 18.25-0.15Q16.59 0.26 14.85 0.26L14.85 0.26Q11.15 0.26 8.05-1.47 4.95-3.21 3.14-6.29 1.32-9.37 1.32-13.26L1.32-13.26Q1.32-17.12 3.14-20.2 4.95-23.28 8.05-25.02 11.15-26.76 14.85-26.76L14.85-26.76Q18.59-26.76 21.67-25.02 24.75-23.28 26.55-20.2 28.34-17.12 28.34-13.26L28.34-13.26Q28.34-9.75 26.85-6.86 25.36-3.97 22.79-2.15L22.79-2.15 28.84 4.65ZM6.76-13.26Q6.76-10.62 7.79-8.62 8.81-6.61 10.64-5.54 12.47-4.46 14.85-4.46L14.85-4.46Q17.23-4.46 19.05-5.54 20.86-6.61 21.88-8.62 22.9-10.62 22.9-13.26L22.9-13.26Q22.9-15.91 21.88-17.89 20.86-19.88 19.05-20.94 17.23-21.99 14.85-21.99L14.85-21.99Q12.47-21.99 10.64-20.94 8.81-19.88 7.79-17.89 6.76-15.91 6.76-13.26L6.76-13.26ZM46.79-20.94L52.11-20.94 52.11 0 46.79 0 46.79-2.65Q45.77-1.28 44.12-0.51 42.48 0.26 40.55 0.26L40.55 0.26Q38.09 0.26 36.2-0.77 34.31-1.81 33.24-3.84 32.16-5.86 32.16-8.65L32.16-8.65 32.16-20.94 37.45-20.94 37.45-9.41Q37.45-6.92 38.7-5.57 39.95-4.23 42.1-4.23L42.1-4.23Q44.29-4.23 45.54-5.57 46.79-6.92 46.79-9.41L46.79-9.41 46.79-20.94ZM76.79-10.92Q76.79-9.79 76.64-8.88L76.64-8.88 61.34-8.88Q61.52-6.61 62.92-5.33 64.32-4.04 66.36-4.04L66.36-4.04Q69.31-4.04 70.56-6.58L70.56-6.58 76.26-6.58Q75.36-3.55 72.79-1.61 70.22 0.34 66.48 0.34L66.48 0.34Q63.45 0.34 61.05-1 58.65-2.34 57.31-4.8 55.97-7.26 55.97-10.47L55.97-10.47Q55.97-13.72 57.29-16.17 58.61-18.63 61-19.95 63.38-21.28 66.48-21.28L66.48-21.28Q69.46-21.28 71.82-19.99 74.19-18.71 75.49-16.34 76.79-13.98 76.79-10.92L76.79-10.92ZM61.37-12.43L71.31-12.43Q71.28-14.47 69.84-15.7 68.4-16.93 66.32-16.93L66.32-16.93Q64.36-16.93 63.02-15.74 61.68-14.55 61.37-12.43L61.37-12.43ZM95.08-20.94L100.41-20.94 100.41 0 95.08 0 95.08-2.65Q94.06-1.28 92.42-0.51 90.78 0.26 88.85 0.26L88.85 0.26Q86.39 0.26 84.5-0.77 82.61-1.81 81.54-3.84 80.46-5.86 80.46-8.65L80.46-8.65 80.46-20.94 85.75-20.94 85.75-9.41Q85.75-6.92 87-5.57 88.24-4.23 90.4-4.23L90.4-4.23Q92.59-4.23 93.84-5.57 95.08-6.92 95.08-9.41L95.08-9.41 95.08-20.94ZM125.09-10.92Q125.09-9.79 124.94-8.88L124.94-8.88 109.63-8.88Q109.82-6.61 111.22-5.33 112.62-4.04 114.66-4.04L114.66-4.04Q117.61-4.04 118.85-6.58L118.85-6.58 124.56-6.58Q123.65-3.55 121.08-1.61 118.51 0.34 114.77 0.34L114.77 0.34Q111.75 0.34 109.35-1 106.95-2.34 105.61-4.8 104.27-7.26 104.27-10.47L104.27-10.47Q104.27-13.72 105.59-16.17 106.91-18.63 109.29-19.95 111.67-21.28 114.77-21.28L114.77-21.28Q117.76-21.28 120.12-19.99 122.48-18.71 123.79-16.34 125.09-13.98 125.09-10.92L125.09-10.92ZM109.67-12.43L119.61-12.43Q119.57-14.47 118.14-15.7 116.7-16.93 114.62-16.93L114.62-16.93Q112.66-16.93 111.32-15.74 109.97-14.55 109.67-12.43L109.67-12.43ZM148.67 0L142.55 0 136.73-10.28 134.24-10.28 134.24 0 128.95 0 128.95-26.38 138.85-26.38Q141.91-26.38 144.06-25.3 146.22-24.22 147.29-22.39 148.37-20.56 148.37-18.29L148.37-18.29Q148.37-15.68 146.86-13.59 145.35-11.49 142.36-10.7L142.36-10.7 148.67 0ZM134.24-21.99L134.24-14.25 138.66-14.25Q140.81-14.25 141.87-15.29 142.93-16.33 142.93-18.18L142.93-18.18Q142.93-19.99 141.87-20.99 140.81-21.99 138.66-21.99L138.66-21.99 134.24-21.99ZM172.63-10.92Q172.63-9.79 172.48-8.88L172.48-8.88 157.18-8.88Q157.36-6.61 158.76-5.33 160.16-4.04 162.2-4.04L162.2-4.04Q165.15-4.04 166.4-6.58L166.4-6.58 172.1-6.58Q171.2-3.55 168.63-1.61 166.06 0.34 162.32 0.34L162.32 0.34Q159.29 0.34 156.89-1 154.49-2.34 153.15-4.8 151.81-7.26 151.81-10.47L151.81-10.47Q151.81-13.72 153.13-16.17 154.45-18.63 156.84-19.95 159.22-21.28 162.32-21.28L162.32-21.28Q165.3-21.28 167.66-19.99 170.02-18.71 171.33-16.34 172.63-13.98 172.63-10.92L172.63-10.92ZM157.21-12.43L167.15-12.43Q167.11-14.47 165.68-15.7 164.24-16.93 162.16-16.93L162.16-16.93Q160.2-16.93 158.86-15.74 157.52-14.55 157.21-12.43L157.21-12.43ZM175.13-10.54Q175.13-13.72 176.39-16.17 177.66-18.63 179.83-19.95 182-21.28 184.69-21.28L184.69-21.28Q187.03-21.28 188.79-20.33 190.55-19.39 191.6-17.95L191.6-17.95 191.6-20.94 196.93-20.94 196.93 0 191.6 0 191.6-3.06Q190.58-1.59 188.79-0.62 186.99 0.34 184.65 0.34L184.65 0.34Q182 0.34 179.83-1.02 177.66-2.38 176.39-4.86 175.13-7.33 175.13-10.54L175.13-10.54ZM191.6-10.47Q191.6-12.4 190.85-13.78 190.09-15.15 188.81-15.89 187.52-16.63 186.05-16.63L186.05-16.63Q184.57-16.63 183.33-15.91 182.08-15.19 181.31-13.81 180.53-12.43 180.53-10.54L180.53-10.54Q180.53-8.65 181.31-7.24 182.08-5.82 183.35-5.06 184.61-4.31 186.05-4.31L186.05-4.31Q187.52-4.31 188.81-5.05 190.09-5.78 190.85-7.16 191.6-8.54 191.6-10.47L191.6-10.47ZM200.75-10.54Q200.75-13.72 202.02-16.17 203.28-18.63 205.47-19.95 207.67-21.28 210.35-21.28L210.35-21.28Q212.39-21.28 214.24-20.39 216.09-19.5 217.19-18.03L217.19-18.03 217.19-27.97 222.56-27.97 222.56 0 217.19 0 217.19-3.1Q216.21-1.55 214.43-0.6 212.65 0.34 210.31 0.34L210.31 0.34Q207.67 0.34 205.47-1.02 203.28-2.38 202.02-4.86 200.75-7.33 200.75-10.54L200.75-10.54ZM217.23-10.47Q217.23-12.4 216.47-13.78 215.71-15.15 214.43-15.89 213.14-16.63 211.67-16.63L211.67-16.63Q210.2-16.63 208.95-15.91 207.7-15.19 206.93-13.81 206.15-12.43 206.15-10.54L206.15-10.54Q206.15-8.65 206.93-7.24 207.7-5.82 208.97-5.06 210.23-4.31 211.67-4.31L211.67-4.31Q213.14-4.31 214.43-5.05 215.71-5.78 216.47-7.16 217.23-8.54 217.23-10.47L217.23-10.47ZM247.2-10.92Q247.2-9.79 247.04-8.88L247.04-8.88 231.74-8.88Q231.93-6.61 233.33-5.33 234.72-4.04 236.76-4.04L236.76-4.04Q239.71-4.04 240.96-6.58L240.96-6.58 246.67-6.58Q245.76-3.55 243.19-1.61 240.62 0.34 236.88 0.34L236.88 0.34Q233.85 0.34 231.45-1 229.06-2.34 227.71-4.8 226.37-7.26 226.37-10.47L226.37-10.47Q226.37-13.72 227.69-16.17 229.02-18.63 231.4-19.95 233.78-21.28 236.88-21.28L236.88-21.28Q239.86-21.28 242.23-19.99 244.59-18.71 245.89-16.34 247.2-13.98 247.2-10.92L247.2-10.92ZM231.78-12.43L241.72-12.43Q241.68-14.47 240.24-15.7 238.81-16.93 236.73-16.93L236.73-16.93Q234.76-16.93 233.42-15.74 232.08-14.55 231.78-12.43L231.78-12.43ZM256.34-17.69Q257.36-19.35 259.01-20.29 260.65-21.24 262.77-21.24L262.77-21.24 262.77-15.68 261.37-15.68Q258.87-15.68 257.61-14.51 256.34-13.34 256.34-10.43L256.34-10.43 256.34 0 251.05 0 251.05-20.94 256.34-20.94 256.34-17.69Z" transform="translate(-1.3200000524520874, 27.969999313354492)"></path></g> <!----> <!----> <!----> <!----> <!----> <!----> <!----></g></g> <!----></g></g></g><mask id="68ae6ecf-75af-46d0-a118-a0bcc5f5064e"><g fill="white"><g><rect fill-opacity="1" stroke-width="2" x="0" y="0" width="117.5" height="131.13400220974745" class="image-rect"></rect> <svg x="0" y="0" width="117.5" height="131.13400220974745" filtersec="colorsb3256518264" class="image-svg-svg primary" style="overflow: visible;"><svg xmlns="http://www.w3.org/2000/svg" viewBox="0 -0.0002520764828659594 89.60324096679688 100.00025939941406"><path d="M0 5.43h83.85v88.91H0z"></path><path d="M89.59 27.35V2.6A2.61 2.61 0 0 0 87 0H21.71a2.55 2.55 0 0 0-2.39 1.57 2.56 2.56 0 0 0 .49 2.81l1 1L62.59 50 21.05 94.34l-1.21 1.28a2.6 2.6 0 0 0 1.9 4.38H87a2.61 2.61 0 0 0 2.6-2.6V27.75a2.71 2.71 0 0 0-.01-.4z" opacity=".8"></path></svg></svg> </g></g> <g transform="translate(-71.97499084472656,49.257001876831055)"><rect fill="black" fill-opacity="1" x="-3.5" y="-3.5" width="268.4499816894531" height="39.619998931884766"></rect><rect fill="black" fill-opacity="1" x="-3.5" y="-3.5"></rect></g><g transform="translate(-71.97499084472656,49.257001876831055)" fill="black"><g data-gra="path-name" fill-rule="" class="tp-name"><g transform="scale(1)"><g><path d="M28.84 4.65L22.26 4.65 18.25-0.15Q16.59 0.26 14.85 0.26L14.85 0.26Q11.15 0.26 8.05-1.47 4.95-3.21 3.14-6.29 1.32-9.37 1.32-13.26L1.32-13.26Q1.32-17.12 3.14-20.2 4.95-23.28 8.05-25.02 11.15-26.76 14.85-26.76L14.85-26.76Q18.59-26.76 21.67-25.02 24.75-23.28 26.55-20.2 28.34-17.12 28.34-13.26L28.34-13.26Q28.34-9.75 26.85-6.86 25.36-3.97 22.79-2.15L22.79-2.15 28.84 4.65ZM6.76-13.26Q6.76-10.62 7.79-8.62 8.81-6.61 10.64-5.54 12.47-4.46 14.85-4.46L14.85-4.46Q17.23-4.46 19.05-5.54 20.86-6.61 21.88-8.62 22.9-10.62 22.9-13.26L22.9-13.26Q22.9-15.91 21.88-17.89 20.86-19.88 19.05-20.94 17.23-21.99 14.85-21.99L14.85-21.99Q12.47-21.99 10.64-20.94 8.81-19.88 7.79-17.89 6.76-15.91 6.76-13.26L6.76-13.26ZM46.79-20.94L52.11-20.94 52.11 0 46.79 0 46.79-2.65Q45.77-1.28 44.12-0.51 42.48 0.26 40.55 0.26L40.55 0.26Q38.09 0.26 36.2-0.77 34.31-1.81 33.24-3.84 32.16-5.86 32.16-8.65L32.16-8.65 32.16-20.94 37.45-20.94 37.45-9.41Q37.45-6.92 38.7-5.57 39.95-4.23 42.1-4.23L42.1-4.23Q44.29-4.23 45.54-5.57 46.79-6.92 46.79-9.41L46.79-9.41 46.79-20.94ZM76.79-10.92Q76.79-9.79 76.64-8.88L76.64-8.88 61.34-8.88Q61.52-6.61 62.92-5.33 64.32-4.04 66.36-4.04L66.36-4.04Q69.31-4.04 70.56-6.58L70.56-6.58 76.26-6.58Q75.36-3.55 72.79-1.61 70.22 0.34 66.48 0.34L66.48 0.34Q63.45 0.34 61.05-1 58.65-2.34 57.31-4.8 55.97-7.26 55.97-10.47L55.97-10.47Q55.97-13.72 57.29-16.17 58.61-18.63 61-19.95 63.38-21.28 66.48-21.28L66.48-21.28Q69.46-21.28 71.82-19.99 74.19-18.71 75.49-16.34 76.79-13.98 76.79-10.92L76.79-10.92ZM61.37-12.43L71.31-12.43Q71.28-14.47 69.84-15.7 68.4-16.93 66.32-16.93L66.32-16.93Q64.36-16.93 63.02-15.74 61.68-14.55 61.37-12.43L61.37-12.43ZM95.08-20.94L100.41-20.94 100.41 0 95.08 0 95.08-2.65Q94.06-1.28 92.42-0.51 90.78 0.26 88.85 0.26L88.85 0.26Q86.39 0.26 84.5-0.77 82.61-1.81 81.54-3.84 80.46-5.86 80.46-8.65L80.46-8.65 80.46-20.94 85.75-20.94 85.75-9.41Q85.75-6.92 87-5.57 88.24-4.23 90.4-4.23L90.4-4.23Q92.59-4.23 93.84-5.57 95.08-6.92 95.08-9.41L95.08-9.41 95.08-20.94ZM125.09-10.92Q125.09-9.79 124.94-8.88L124.94-8.88 109.63-8.88Q109.82-6.61 111.22-5.33 112.62-4.04 114.66-4.04L114.66-4.04Q117.61-4.04 118.85-6.58L118.85-6.58 124.56-6.58Q123.65-3.55 121.08-1.61 118.51 0.34 114.77 0.34L114.77 0.34Q111.75 0.34 109.35-1 106.95-2.34 105.61-4.8 104.27-7.26 104.27-10.47L104.27-10.47Q104.27-13.72 105.59-16.17 106.91-18.63 109.29-19.95 111.67-21.28 114.77-21.28L114.77-21.28Q117.76-21.28 120.12-19.99 122.48-18.71 123.79-16.34 125.09-13.98 125.09-10.92L125.09-10.92ZM109.67-12.43L119.61-12.43Q119.57-14.47 118.14-15.7 116.7-16.93 114.62-16.93L114.62-16.93Q112.66-16.93 111.32-15.74 109.97-14.55 109.67-12.43L109.67-12.43ZM148.67 0L142.55 0 136.73-10.28 134.24-10.28 134.24 0 128.95 0 128.95-26.38 138.85-26.38Q141.91-26.38 144.06-25.3 146.22-24.22 147.29-22.39 148.37-20.56 148.37-18.29L148.37-18.29Q148.37-15.68 146.86-13.59 145.35-11.49 142.36-10.7L142.36-10.7 148.67 0ZM134.24-21.99L134.24-14.25 138.66-14.25Q140.81-14.25 141.87-15.29 142.93-16.33 142.93-18.18L142.93-18.18Q142.93-19.99 141.87-20.99 140.81-21.99 138.66-21.99L138.66-21.99 134.24-21.99ZM172.63-10.92Q172.63-9.79 172.48-8.88L172.48-8.88 157.18-8.88Q157.36-6.61 158.76-5.33 160.16-4.04 162.2-4.04L162.2-4.04Q165.15-4.04 166.4-6.58L166.4-6.58 172.1-6.58Q171.2-3.55 168.63-1.61 166.06 0.34 162.32 0.34L162.32 0.34Q159.29 0.34 156.89-1 154.49-2.34 153.15-4.8 151.81-7.26 151.81-10.47L151.81-10.47Q151.81-13.72 153.13-16.17 154.45-18.63 156.84-19.95 159.22-21.28 162.32-21.28L162.32-21.28Q165.3-21.28 167.66-19.99 170.02-18.71 171.33-16.34 172.63-13.98 172.63-10.92L172.63-10.92ZM157.21-12.43L167.15-12.43Q167.11-14.47 165.68-15.7 164.24-16.93 162.16-16.93L162.16-16.93Q160.2-16.93 158.86-15.74 157.52-14.55 157.21-12.43L157.21-12.43ZM175.13-10.54Q175.13-13.72 176.39-16.17 177.66-18.63 179.83-19.95 182-21.28 184.69-21.28L184.69-21.28Q187.03-21.28 188.79-20.33 190.55-19.39 191.6-17.95L191.6-17.95 191.6-20.94 196.93-20.94 196.93 0 191.6 0 191.6-3.06Q190.58-1.59 188.79-0.62 186.99 0.34 184.65 0.34L184.65 0.34Q182 0.34 179.83-1.02 177.66-2.38 176.39-4.86 175.13-7.33 175.13-10.54L175.13-10.54ZM191.6-10.47Q191.6-12.4 190.85-13.78 190.09-15.15 188.81-15.89 187.52-16.63 186.05-16.63L186.05-16.63Q184.57-16.63 183.33-15.91 182.08-15.19 181.31-13.81 180.53-12.43 180.53-10.54L180.53-10.54Q180.53-8.65 181.31-7.24 182.08-5.82 183.35-5.06 184.61-4.31 186.05-4.31L186.05-4.31Q187.52-4.31 188.81-5.05 190.09-5.78 190.85-7.16 191.6-8.54 191.6-10.47L191.6-10.47ZM200.75-10.54Q200.75-13.72 202.02-16.17 203.28-18.63 205.47-19.95 207.67-21.28 210.35-21.28L210.35-21.28Q212.39-21.28 214.24-20.39 216.09-19.5 217.19-18.03L217.19-18.03 217.19-27.97 222.56-27.97 222.56 0 217.19 0 217.19-3.1Q216.21-1.55 214.43-0.6 212.65 0.34 210.31 0.34L210.31 0.34Q207.67 0.34 205.47-1.02 203.28-2.38 202.02-4.86 200.75-7.33 200.75-10.54L200.75-10.54ZM217.23-10.47Q217.23-12.4 216.47-13.78 215.71-15.15 214.43-15.89 213.14-16.63 211.67-16.63L211.67-16.63Q210.2-16.63 208.95-15.91 207.7-15.19 206.93-13.81 206.15-12.43 206.15-10.54L206.15-10.54Q206.15-8.65 206.93-7.24 207.7-5.82 208.97-5.06 210.23-4.31 211.67-4.31L211.67-4.31Q213.14-4.31 214.43-5.05 215.71-5.78 216.47-7.16 217.23-8.54 217.23-10.47L217.23-10.47ZM247.2-10.92Q247.2-9.79 247.04-8.88L247.04-8.88 231.74-8.88Q231.93-6.61 233.33-5.33 234.72-4.04 236.76-4.04L236.76-4.04Q239.71-4.04 240.96-6.58L240.96-6.58 246.67-6.58Q245.76-3.55 243.19-1.61 240.62 0.34 236.88 0.34L236.88 0.34Q233.85 0.34 231.45-1 229.06-2.34 227.71-4.8 226.37-7.26 226.37-10.47L226.37-10.47Q226.37-13.72 227.69-16.17 229.02-18.63 231.4-19.95 233.78-21.28 236.88-21.28L236.88-21.28Q239.86-21.28 242.23-19.99 244.59-18.71 245.89-16.34 247.2-13.98 247.2-10.92L247.2-10.92ZM231.78-12.43L241.72-12.43Q241.68-14.47 240.24-15.7 238.81-16.93 236.73-16.93L236.73-16.93Q234.76-16.93 233.42-15.74 232.08-14.55 231.78-12.43L231.78-12.43ZM256.34-17.69Q257.36-19.35 259.01-20.29 260.65-21.24 262.77-21.24L262.77-21.24 262.77-15.68 261.37-15.68Q258.87-15.68 257.61-14.51 256.34-13.34 256.34-10.43L256.34-10.43 256.34 0 251.05 0 251.05-20.94 256.34-20.94 256.34-17.69Z" transform="translate(-1.3200000524520874, 27.969999313354492)"></path></g>       </g></g> </g></mask><defs v-gra="od"></defs></svg>